<svg id="레이어_1" data-name="레이어 1" xmlns="http://www.w3.org/2000/svg" viewBox="0 0 80 80"><defs><style>.cls-1{fill:#333;}.cls-2{fill:#f8f8f8;}</style></defs><g id="vlpa"><g id="vlpb"><g id="vlpc"><g id="vlpd"><path class="cls-1" d="M19.33,8.8H60.67A11.33,11.33,0,0,1,72,20.13V59.87A11.33,11.33,0,0,1,60.67,71.2H19.33A11.33,11.33,0,0,1,8,59.87V20.13A11.33,11.33,0,0,1,19.33,8.8Z"/></g></g></g><g id="vlpe"><g id="vlpf"><path class="cls-2" d="M38.93,46.13H29L27,52.4a.47.47,0,0,1-.51.37h-5c-.3,0-.38-.16-.3-.48l8.59-24.72c.08-.26.16-.56.27-.88A9.85,9.85,0,0,0,30.19,25a.26.26,0,0,1,.21-.29h6.91c.21,0,.32.08.34.21l9.74,27.47c.08.29,0,.42-.27.42H41.55a.39.39,0,0,1-.43-.29l-2.19-6.35Zm-8.37-5.41h6.77c-.16-.56-.37-1.23-.61-1.92s-.48-1.49-.72-2.29-.51-1.63-.77-2.46-.51-1.6-.72-2.37-.4-1.44-.59-2.08h-.05A33.6,33.6,0,0,1,33,33c-.4,1.28-.8,2.61-1.23,4S31,39.6,30.56,40.72Z"/><path class="cls-2" d="M53.33,29.33A3.29,3.29,0,0,1,51,28.4,3.52,3.52,0,0,1,50.05,26a3.18,3.18,0,0,1,1-2.38,3.44,3.44,0,0,1,2.38-.93,3.18,3.18,0,0,1,2.42.93,3.68,3.68,0,0,1-.05,4.83,3.11,3.11,0,0,1-2.43.93Zm-3,23.15V32c0-.27.1-.38.34-.38H56c.24,0,.35.14.35.38V52.48c0,.29-.11.43-.35.43H50.75C50.48,52.91,50.35,52.75,50.35,52.48Z"/></g></g></g></svg>