<svg id="레이어_1" data-name="레이어 1" xmlns="http://www.w3.org/2000/svg" viewBox="0 0 80 80"><defs><style>.cls-1{fill:#333;}.cls-2{fill:#424242;}</style></defs><path id="path0_fill" data-name="path0 fill" class="cls-1" d="M29.6,71.2A10.4,10.4,0,0,0,40,60.8V50.4H29.6a10.4,10.4,0,1,0,0,20.8Z"/><path id="path1_fill" data-name="path1 fill" class="cls-2" d="M19.2,40A10.4,10.4,0,0,1,29.6,29.6H40V50.4H29.6A10.4,10.4,0,0,1,19.2,40Z"/><path id="path1_fill-2" data-name="path1 fill" class="cls-1" d="M19.2,19.2A10.4,10.4,0,0,1,29.6,8.8H40V29.6H29.6A10.4,10.4,0,0,1,19.2,19.2Z"/><path id="path2_fill" data-name="path2 fill" class="cls-2" d="M40,8.8H50.4a10.4,10.4,0,0,1,0,20.8H40Z"/><path id="path3_fill" data-name="path3 fill" class="cls-1" d="M60.8,40A10.4,10.4,0,1,1,50.4,29.6,10.4,10.4,0,0,1,60.8,40Z"/></svg>