<svg id="레이어_1" data-name="레이어 1" xmlns="http://www.w3.org/2000/svg" viewBox="0 0 80 80"><defs><style>.cls-1{fill:#333;}.cls-2{fill:#424242;}.cls-3{fill:#fff;}</style></defs><path class="cls-1" d="M16.91,65.62,11.78,8H68.22L63.09,65.59,40,72"/><path class="cls-2" d="M40,67.1V12.73H63.07l-4.4,49.16"/><polygon class="cls-3" points="40 26.84 57.02 26.84 57.67 19.78 40 19.78 39.97 19.78 22.27 19.78 24.19 41.12 39.97 41.12 39.97 41.14 48.68 41.14 47.86 50.31 39.98 52.43 32.1 50.31 31.6 44.67 24.51 44.67 25.5 55.76 40 59.8 40 59.76 54.44 55.76 56.38 34.07 40 34.07 39.97 34.07 30.67 34.07 30.01 26.84 39.97 26.84 40 26.84"/></svg>