<svg id="레이어_1" data-name="레이어 1" xmlns="http://www.w3.org/2000/svg" viewBox="0 0 80 80"><defs><style>.cls-1{fill:#333;}.cls-2{fill:#fff;}</style></defs><path class="cls-1" d="M19.33,8.8H60.67A11.33,11.33,0,0,1,72,20.13V59.87A11.33,11.33,0,0,1,60.67,71.2H19.33A11.33,11.33,0,0,1,8,59.87V20.13A11.33,11.33,0,0,1,19.33,8.8Z"/><g id="vlpa"><g id="vlpb"><path class="cls-2" d="M31.25,25.12V52.59c0,.29-.13.42-.37.42H25.65c-.24,0-.34-.13-.34-.42V25.12c0-.24.13-.35.37-.35h5.2a.31.31,0,0,1,.35.27A.12.12,0,0,1,31.25,25.12Z"/><path class="cls-2" d="M46.67,53.33a13.18,13.18,0,0,1-5.74-1.2,9.27,9.27,0,0,1-4-3.62,11.53,11.53,0,0,1-1.47-6.08,10.89,10.89,0,0,1,1.47-5.63,11.07,11.07,0,0,1,4.24-4.13,13.6,13.6,0,0,1,6.74-1.55,4.19,4.19,0,0,1,.56,0c.24,0,.51,0,.83.05V22.77c0-.18.08-.29.27-.29H55a.24.24,0,0,1,.27.19V48.11c0,.48,0,1,.05,1.6s.08,1.09.11,1.54a.43.43,0,0,1-.27.43A20.34,20.34,0,0,1,50.77,53a23.24,23.24,0,0,1-4.1.37ZM49.28,48V36.27a6.1,6.1,0,0,0-.72-.14c-.29,0-.59-.05-.88-.05a6.55,6.55,0,0,0-3,.69,6,6,0,0,0-2.27,2,5.87,5.87,0,0,0-.88,3.38A7.36,7.36,0,0,0,42,44.88a5.26,5.26,0,0,0,1.2,1.89A4.58,4.58,0,0,0,45,47.84a7,7,0,0,0,2.21.35c.4,0,.77,0,1.12-.06a2.16,2.16,0,0,0,1-.13Z"/></g></g></svg>