<svg id="레이어_1" data-name="레이어 1" xmlns="http://www.w3.org/2000/svg" viewBox="0 0 80 80"><defs><style>.cls-1{fill:#fff;}.cls-2{fill:#424242;}.cls-3{fill:#333;}</style></defs><path class="cls-1" d="M68.06,8.21V8H12v.2c-.14,0-.19.06-.19.09,0,.73,4.93,55.82,5.06,56.57l.15.84,11.37,3.18h0C34.6,70.62,39.89,72,40.1,72c.73-.11,22.75-6.24,22.9-6.38S68.23,9.69,68.24,8.33C68.24,8.28,68.21,8.24,68.06,8.21Z"/><path id="path80" class="cls-2" d="M28.25,68.69,17,65.53,14.47,37.48C13.09,22.05,12,9.1,12,8.71V8H68.06v.43c0,.59-4.93,56.25-5,56.73s-1.43.77-11.51,3.56C45.24,70.46,40,71.87,39.81,71.86s-5.36-1.44-11.56-3.17ZM47.18,57.78c3.9-1.09,7.14-2.06,7.21-2.17s.53-4.88,1-10.59,1-10.54,1-10.72-.58-.33-12-.33H32.31l.51-5.45c.28-3,.52-5.46.53-5.47l3.95-.12c3.55-.1,10.86.18,11.11.43.09.09.69,6,.69,6.79,0,.4,0,.41,3.67.41h3.68l-.09-.81c0-.44-.36-3.87-.69-7.63l-.61-6.82L40.9,15.25c-11.27,0-14.17,0-14.17.19s-.08,1-.18,1.85c-.25,2.14-2.09,22.86-2.09,23.43v.45h24.1l-.1.71c-.06.39-.25,2.38-.42,4.41a34.36,34.36,0,0,1-.43,3.81c-.18.17-7.27,2.07-7.71,2.06-.2,0-2-.46-4.07-1l-3.7-1L32,48.55c-.08-.88-.19-2.13-.25-2.78l-.12-1.18H24.46v.71c0,1.33.87,10.28,1,10.4s13.92,4,14.34,4c.16,0,3.47-.88,7.37-2Z"/><path id="path78" class="cls-3" d="M28.25,68.69,17,65.53,14.47,37.48C13.09,22.05,12,9.1,12,8.71V8H68.06v.43c0,.59-4.93,56.25-5,56.73s-1.43.77-11.51,3.56C45.24,70.46,40,71.87,39.81,71.86s-5.36-1.44-11.56-3.17Zm21-4.22c5-1.37,9.11-2.59,9.22-2.71S63,14.64,62.94,13.07v-.52H40V15.2H33.37c-5.18,0-6.64.06-6.64.24s-.08,1-.18,1.85c-.25,2.14-2.09,22.86-2.09,23.43v.45H40v5.5c0,4.27,0,5.5-.24,5.49s-1.9-.46-3.93-1l-3.7-1L32,48.55c-.08-.88-.19-2.13-.25-2.78l-.12-1.18H24.46v.71a96,96,0,0,0,1.1,10.46c.13.07,3.43,1,7.33,2.1l7.1,2v3.56A24.87,24.87,0,0,0,40.13,67c.07,0,4.19-1.12,9.15-2.48ZM32.8,28.57c.27-3,.53-5.43.58-5.47s1.55-.12,3.35-.17L40,22.84V34H32.31Z"/></svg>