<svg id="레이어_1" data-name="레이어 1" xmlns="http://www.w3.org/2000/svg" viewBox="0 0 80 80"><defs><style>.cls-1{fill:#f8f8f8;}.cls-2{fill:#424242;}.cls-3{fill:#333;}</style></defs><path id="path118" class="cls-1" d="M12,8v.71c0,.39,1.13,13.34,2.51,28.77L17,65.53l11.27,3.16c6.2,1.73,11.41,3.16,11.56,3.17s5.43-1.4,11.71-3.14C61.6,65.93,63,65.51,63,65.16s5-56.14,5-56.73V8H12Z"/><path id="path88" class="cls-1" d="M28.34,68.88,17,65.7l-.15-.84C16.69,64.11,11.76,9,11.76,8.29,11.76,8,14.64,8,40,8c26.77,0,28.25,0,28.24.33,0,1.36-5.11,57.18-5.24,57.29S40.83,71.89,40.1,72c-.21,0-5.5-1.38-11.76-3.12ZM47.17,57.64c3.83-1,7-2,7.08-2s.51-4.6,1-10.08.92-10.31,1-10.75l.11-.81H39.81v7h8.92l-.09.43c0,.23-.24,2.25-.42,4.48a25.61,25.61,0,0,1-.55,4.27,32.39,32.39,0,0,1-4,1.24l-3.82,1V56c0,2.44.07,3.57.21,3.57s3.33-.86,7.15-1.92Zm9-28.08C56.09,28.63,55,16.18,55,15.71c0-.29-.66-.32-7.49-.32H40v7.34l3.37.13c1.85.07,3.79.18,4.32.24l1,.11.23,2.87c.13,1.58.28,3.19.34,3.58l.11.71h7Z"/><path id="path80" class="cls-2" d="M28.25,68.69,17,65.53,14.47,37.48C13.09,22.05,12,9.1,12,8.71V8H68.06v.43c0,.59-4.93,56.25-5,56.73s-1.43.77-11.51,3.56C45.24,70.46,40,71.87,39.81,71.86s-5.36-1.44-11.56-3.17ZM47.18,57.78c3.9-1.09,7.14-2.06,7.21-2.17s.53-4.88,1-10.59,1-10.54,1-10.72-.58-.33-12-.33H32.31l.51-5.45c.28-3,.52-5.46.53-5.47l3.95-.12c3.55-.1,10.86.18,11.11.43.09.09.69,6,.69,6.79,0,.4,0,.41,3.67.41h3.68l-.09-.81c0-.44-.36-3.87-.69-7.63l-.61-6.82L40.9,15.25c-11.27,0-14.17,0-14.17.19s-.08,1-.18,1.85c-.25,2.14-2.09,22.86-2.09,23.43v.45h24.1l-.1.71c-.06.39-.25,2.38-.42,4.41a34.36,34.36,0,0,1-.43,3.81c-.18.17-7.27,2.07-7.71,2.06-.2,0-2-.46-4.07-1l-3.7-1L32,48.55c-.08-.88-.19-2.13-.25-2.78l-.12-1.18H24.46v.71c0,1.33.87,10.28,1,10.4s13.92,4,14.34,4c.16,0,3.47-.88,7.37-2Z"/><path id="path78" class="cls-3" d="M28.25,68.69,17,65.53,14.47,37.48C13.09,22.05,12,9.1,12,8.71V8H68.06v.43c0,.59-4.93,56.25-5,56.73s-1.43.77-11.51,3.56C45.24,70.46,40,71.87,39.81,71.86s-5.36-1.44-11.56-3.17Zm21-4.22c5-1.37,9.11-2.59,9.22-2.71S63,14.64,62.94,13.07v-.52H40V15.2H33.37c-5.18,0-6.64.06-6.64.24s-.08,1-.18,1.85c-.25,2.14-2.09,22.86-2.09,23.43v.45H40v5.5c0,4.27,0,5.5-.24,5.49s-1.9-.46-3.93-1l-3.7-1L32,48.55c-.08-.88-.19-2.13-.25-2.78l-.12-1.18H24.46v.71a96,96,0,0,0,1.1,10.46c.13.07,3.43,1,7.33,2.1l7.1,2v3.56A24.87,24.87,0,0,0,40.13,67c.07,0,4.19-1.12,9.15-2.48ZM32.8,28.57c.27-3,.53-5.43.58-5.47s1.55-.12,3.35-.17L40,22.84V34H32.31Z"/></svg>