<svg id="레이어_1" data-name="레이어 1" xmlns="http://www.w3.org/2000/svg" viewBox="0 0 80 80"><defs><style>.cls-1{fill:#333;}.cls-2{fill:#f8f8f8;}</style></defs><g id="Layer_2" data-name="Layer 2"><g id="Surfaces"><g id="Photo_Surface" data-name="Photo Surface"><g id="Outline_no_shadow" data-name="Outline no shadow"><path class="cls-1" d="M19.33,9.52H60.67A11.33,11.33,0,0,1,72,20.85V60.59A11.33,11.33,0,0,1,60.67,71.92H19.33A11.33,11.33,0,0,1,8,60.59V20.85A11.33,11.33,0,0,1,19.33,9.52Z"/></g></g></g><g id="Outlined_Mnemonics_Logos" data-name="Outlined Mnemonics Logos"><g id="Ps"><path class="cls-2" d="M22.4,53.28V25.84c0-.19.08-.29.27-.29.45,0,.88,0,1.49,0s1.31,0,2-.05,1.49,0,2.32-.06,1.62,0,2.42,0a15.74,15.74,0,0,1,5.5.82A9.56,9.56,0,0,1,40,28.4a8.53,8.53,0,0,1,2,3,10.22,10.22,0,0,1,.61,3.47A9.53,9.53,0,0,1,41,40.59a9.17,9.17,0,0,1-4.29,3.25,17.25,17.25,0,0,1-6,.91c-.64,0-1.07,0-1.34,0s-.64,0-1.14,0v8.56a.35.35,0,0,1-.3.38H22.72C22.51,53.63,22.4,53.52,22.4,53.28Zm5.81-22.59v9c.38,0,.72.06,1,.06h1.42a9.89,9.89,0,0,0,3.06-.48,4.57,4.57,0,0,0,2.19-1.42,4.1,4.1,0,0,0,.83-2.74,4.44,4.44,0,0,0-.62-2.38,3.91,3.91,0,0,0-1.86-1.52,7.8,7.8,0,0,0-3.15-.53c-.69,0-1.31,0-1.81,0a6.77,6.77,0,0,0-1.1,0Z"/><path class="cls-2" d="M59.2,38a9.41,9.41,0,0,0-2.56-.91,14.28,14.28,0,0,0-3-.35,5.75,5.75,0,0,0-1.6.19,1.26,1.26,0,0,0-1,1.25,1.23,1.23,0,0,0,.27.7,3.09,3.09,0,0,0,.91.72c.61.32,1.25.61,1.89.88a19.32,19.32,0,0,1,4.11,1.94,6.12,6.12,0,0,1,2.1,2.22,5.77,5.77,0,0,1,.62,2.74,6.28,6.28,0,0,1-1,3.55,6.68,6.68,0,0,1-3,2.37,12.24,12.24,0,0,1-4.83.86,18.35,18.35,0,0,1-3.62-.35A10.63,10.63,0,0,1,45.71,53a.55.55,0,0,1-.3-.51V47.84a.29.29,0,0,1,.11-.24.2.2,0,0,1,.24,0,11.25,11.25,0,0,0,3.31,1.3,12.23,12.23,0,0,0,3.14.4A5.11,5.11,0,0,0,54.43,49a1.25,1.25,0,0,0,.72-1.12,1.45,1.45,0,0,0-.64-1.07,11.88,11.88,0,0,0-2.62-1.25,16.2,16.2,0,0,1-3.78-1.92,6.93,6.93,0,0,1-2-2.27,5.62,5.62,0,0,1-.61-2.72,6.31,6.31,0,0,1,.9-3.22,6.67,6.67,0,0,1,2.8-2.46A10.37,10.37,0,0,1,53.89,32a22.93,22.93,0,0,1,3.31.24,9.66,9.66,0,0,1,2.29.61.49.49,0,0,1,.27.24,1.25,1.25,0,0,1,.05.32v4.35a.34.34,0,0,1-.13.27A.76.76,0,0,1,59.2,38Z"/></g></g></g></svg>