<svg id="레이어_1" data-name="레이어 1" xmlns="http://www.w3.org/2000/svg" viewBox="0 0 80 80"><defs><style>.cls-1{fill:#333;}</style></defs><circle class="cls-1" cx="40" cy="40.01" r="5.7"/><path class="cls-1" d="M40,53.09C22.06,53.09,8,47.35,8,40S22.06,26.94,40,26.94,72,32.68,72,40,57.94,53.09,40,53.09Zm0-23.37c-17.22,0-29.22,5.43-29.22,10.3S22.78,50.31,40,50.31,69.22,44.88,69.22,40,57.22,29.72,40,29.72Z"/><path class="cls-1" d="M52.86,68.53c-6.67,0-16.53-8.72-24.18-22-4.17-7.22-7-14.65-8-20.93C19.57,18.9,20.76,14.17,24,12.3s7.93-.53,13.21,3.76c4.93,4,9.95,10.19,14.12,17.41h0c9,15.55,11,30.59,4.67,34.26A6.17,6.17,0,0,1,52.86,68.53ZM27.26,14.25a3.65,3.65,0,0,0-1.87.46c-2.13,1.23-2.86,5.05-2,10.47,1,5.95,3.68,13,7.68,20,8.61,14.91,19.31,22.58,23.53,20.16s2.91-15.54-5.69-30.45h0c-4-6.94-8.79-12.85-13.46-16.65C32.26,15.62,29.4,14.25,27.26,14.25Z"/><path class="cls-1" d="M27.14,68.53a6.17,6.17,0,0,1-3.14-.8C17.65,64.06,19.7,49,28.68,33.47c4.17-7.22,9.18-13.4,14.11-17.41,5.28-4.29,10-5.64,13.21-3.76s4.43,6.6,3.35,13.32c-1,6.28-3.85,13.71-8,20.93C43.67,59.81,33.82,68.53,27.14,68.53Zm25.6-54.28c-2.14,0-5,1.37-8.2,4-4.67,3.8-9.45,9.71-13.46,16.65-8.6,14.91-9.91,28-5.69,30.45s14.92-5.24,23.53-20.16c4-6.94,6.73-14,7.69-20,.86-5.42.13-9.24-2-10.47A3.65,3.65,0,0,0,52.74,14.25Z"/></svg>