<svg id="레이어_1" data-name="레이어 1" xmlns="http://www.w3.org/2000/svg" viewBox="0 0 80 80"><defs><style>.cls-1{fill:#333;}</style></defs><path class="cls-1" d="M63.11,43.59a13.19,13.19,0,0,0-5.8,1.35,12.32,12.32,0,0,1-1.3-3,8.28,8.28,0,0,1-.11-2.52,22.18,22.18,0,0,1,.76-2.73c0-.11-.14-.66-1.43-.67s-2.4.24-2.52.58a13.26,13.26,0,0,0-.54,1.91C52,39.67,49.6,43.84,48.25,46a8.16,8.16,0,0,1-.89-2.19,8.33,8.33,0,0,1-.11-2.53A21.84,21.84,0,0,1,48,38.58c0-.12-.14-.67-1.43-.68s-2.4.25-2.53.58-.26,1.14-.53,1.91-3.39,7.74-4.21,9.54c-.42.92-.78,1.66-1,2.16h0a.36.36,0,0,1-.05.1c-.22.43-.35.66-.35.66h0c-.17.32-.36.61-.46.61a4,4,0,0,1,0-2C37.91,49.06,39,45.3,39,45.17s.21-.72-.72-1.06a1.16,1.16,0,0,0-1.32.22c-.08,0-.14.2-.14.2s1-4.23-1.94-4.23c-1.85,0-4.4,2-5.66,3.84l-4.3,2.35-2.07,1.14-.14-.16C19.13,43.65,12.52,41,12.8,35.82c.1-1.87.74-6.78,12.7-12.74,9.85-4.85,17.68-3.51,19-.53,1.94,4.26-4.19,12.16-14.36,13.3-3.88.44-5.92-1.06-6.43-1.62s-.62-.62-.82-.5-.12.7,0,1a6,6,0,0,0,3.67,2.89c1.87.61,6.42,1,11.92-1.18,6.16-2.39,11-9,9.57-14.57s-10.77-7.49-19.62-4.35c-5.26,1.88-11,4.82-15.07,8.66C8.52,30.73,7.75,34.7,8.06,36.36c1.14,5.89,9.26,9.72,12.51,12.56l-.44.25c-1.63.81-7.83,4-9.37,7.47-1.75,3.88.28,6.66,1.63,7a10,10,0,0,0,10.76-4.36,10.77,10.77,0,0,0,1-10,.12.12,0,0,0-.05-.07l1.28-.75c.83-.49,1.65-.95,2.35-1.32a15.29,15.29,0,0,0-.83,4.25c-.18,2.2.72,5.05,1.9,6.18a2.12,2.12,0,0,0,1.55.5c1.38,0,2-1.15,2.69-2.5.84-1.66,1.6-3.59,1.6-3.59s-1,5.21,1.62,5.21c.94,0,1.88-1.21,2.31-1.83h0l.07-.12.15-.24v0c.37-.65,1.21-2.14,2.46-4.6,1.62-3.18,3.17-7.16,3.17-7.16A20.44,20.44,0,0,0,45,45.9a26.24,26.24,0,0,0,1.33,3c-.37.52-.6.82-.6.82h0c-.31.4-.63.83-1,1.25a38,38,0,0,0-3,3.76A1,1,0,0,0,42,56.11a2.51,2.51,0,0,0,1.57.26,7.07,7.07,0,0,0,2.35-.54,7.9,7.9,0,0,0,2-1.06,4.53,4.53,0,0,0,1.94-4A8,8,0,0,0,49.16,48l.34-.5a52.54,52.54,0,0,0,3.51-6A20.12,20.12,0,0,0,53.63,44a16.66,16.66,0,0,0,1.13,2.57A11.15,11.15,0,0,0,51.35,51c-.74,2.13-.16,3.09.92,3.31A3.36,3.36,0,0,0,54,53.94a7.66,7.66,0,0,0,2.16-1.11c1.25-.93,2.46-2.21,2.39-3.95A7.66,7.66,0,0,0,58,46.54a12.13,12.13,0,0,1,6.21-.71c5.56.65,6.66,4.12,6.45,5.58a3.72,3.72,0,0,1-1.77,2.51c-.38.24-.51.32-.48.5s.24.24.57.2a4.35,4.35,0,0,0,3-3.87C72.17,47.31,68.9,43.56,63.11,43.59ZM20.18,58.07c-1.84,2-4.41,2.77-5.53,2.12s-.72-3.66,1.55-5.78a28.89,28.89,0,0,1,4.33-3.24l1.15-.69.13-.07h0l.28-.18A8,8,0,0,1,20.18,58.07Zm13.45-9.15c-.65,1.57-2,5.58-2.81,5.36s-1.13-3.23-.14-6.23a14,14,0,0,1,2.19-4c1-1.12,2.11-1.5,2.38-1S34,47.94,33.63,48.92Zm11.09,5.31c-.27.14-.53.23-.64.16s.11-.23.11-.23,1.4-1.5,2-2.17c.31-.4.69-.87,1.08-1.39v.15C47.22,52.54,45.49,53.74,44.72,54.23Zm8.56-1.95c-.2-.14-.17-.61.5-2.07a8,8,0,0,1,1.91-2.46,3.59,3.59,0,0,1,.18,1.08A3.53,3.53,0,0,1,53.28,52.28Z"/></svg>