<svg id="레이어_1" data-name="레이어 1" xmlns="http://www.w3.org/2000/svg" viewBox="0 0 80 80"><defs><style>.cls-1{fill:#333;}.cls-2{fill:#fff;fill-rule:evenodd;}</style></defs><rect class="cls-1" x="8" y="8" width="64" height="64" rx="6.25"/><path class="cls-2" d="M47.62,58.88v6.24a13.34,13.34,0,0,0,3.63,1.18,23.76,23.76,0,0,0,4.37.39,20.38,20.38,0,0,0,4.26-.43,10.71,10.71,0,0,0,3.5-1.37,6.15,6.15,0,0,0,2.37-2.63,9.41,9.41,0,0,0,.89-4,8.2,8.2,0,0,0-.52-3A5.82,5.82,0,0,0,64.62,53a9.88,9.88,0,0,0-2.24-1.75,29.91,29.91,0,0,0-3-1.5c-.83-.34-1.5-.66-2.26-1a10.28,10.28,0,0,1-1.62-1,4.59,4.59,0,0,1-1.06-1,2.19,2.19,0,0,1-.38-1.25,2.07,2.07,0,0,1,.34-1.16,3,3,0,0,1,.94-.89,4.7,4.7,0,0,1,1.5-.57,8.62,8.62,0,0,1,2-.2,11.31,11.31,0,0,1,1.62.11,12.42,12.42,0,0,1,1.75.37,13,13,0,0,1,1.75.61,8.29,8.29,0,0,1,1.5.86V38.76a15.32,15.32,0,0,0-3.12-.82,25.85,25.85,0,0,0-3.88-.26,18.46,18.46,0,0,0-4.25.48,9.84,9.84,0,0,0-3.5,1.5,7.07,7.07,0,0,0-2.37,2.62A7.41,7.41,0,0,0,47.46,46a7,7,0,0,0,1.63,4.75A13,13,0,0,0,54,54.15c.87.35,1.63.7,2.38,1a10.93,10.93,0,0,1,1.87,1.05,4.34,4.34,0,0,1,1.25,1.19,2.4,2.4,0,0,1,.48,1.5,2.31,2.31,0,0,1-.29,1.12,2.47,2.47,0,0,1-.89.9,5,5,0,0,1-1.5.6,9,9,0,0,1-2.12.22,11.21,11.21,0,0,1-4-.72,11.62,11.62,0,0,1-3.75-2.12ZM37.12,43.5h8V38.38H22.75V43.5h8V66.38h6.37Z"/></svg>